<?xml version="1.0" encoding="UTF-8"?>
<svg xmlns="http://www.w3.org/2000/svg" xmlns:xlink="http://www.w3.org/1999/xlink" width="751px" height="724px" viewBox="0 0 751 724" version="1.1">
<defs>
<filter id="alpha" filterUnits="objectBoundingBox" x="0%" y="0%" width="100%" height="100%">
  <feColorMatrix type="matrix" in="SourceGraphic" values="0 0 0 0 1 0 0 0 0 1 0 0 0 0 1 0 0 0 1 0"/>
</filter>
<mask id="mask0">
  <g filter="url(#alpha)">
<rect x="0" y="0" width="751" height="724" style="fill:rgb(0%,0%,0%);fill-opacity:0.796078;stroke:none;"/>
  </g>
</mask>
<clipPath id="clip1">
  <rect x="0" y="0" width="751" height="724"/>
</clipPath>
<g id="surface5" clip-path="url(#clip1)">
<path style=" stroke:none;fill-rule:evenodd;fill:rgb(26.666667%,37.647059%,41.568627%);fill-opacity:1;" d="M 377.378906 -0.375 C 378.128906 -0.375 378.878906 -0.375 379.628906 -0.375 C 379.628906 77.730469 379.628906 155.839844 379.628906 233.949219 C 379.59375 240.726562 379.59375 247.738281 379.628906 254.976562 C 379.378906 254.976562 379.128906 254.976562 378.878906 254.976562 C 378.378906 259.984375 377.878906 264.992188 377.378906 269.996094 C 377.378906 264.992188 377.378906 259.984375 377.378906 254.976562 C 377.378906 247.96875 377.378906 240.957031 377.378906 233.949219 C 377.378906 155.839844 377.378906 77.730469 377.378906 -0.375 Z M 377.378906 -0.375 "/>
</g>
<mask id="mask1">
  <g filter="url(#alpha)">
<rect x="0" y="0" width="751" height="724" style="fill:rgb(0%,0%,0%);fill-opacity:0.988235;stroke:none;"/>
  </g>
</mask>
<clipPath id="clip2">
  <rect x="0" y="0" width="751" height="724"/>
</clipPath>
<g id="surface8" clip-path="url(#clip2)">
<path style=" stroke:none;fill-rule:evenodd;fill:rgb(12.941176%,34.901961%,47.058824%);fill-opacity:1;" d="M 377.378906 233.949219 C 377.378906 240.957031 377.378906 247.96875 377.378906 254.976562 C 300.777344 254.976562 224.171875 254.976562 147.570312 254.976562 C 147.070312 343.601562 147.574219 431.976562 149.074219 520.09375 C 303.53125 520.09375 457.984375 520.09375 612.441406 520.09375 C 612.441406 433.722656 612.441406 347.355469 612.441406 260.984375 C 612.441406 259.234375 612.441406 257.480469 612.441406 255.726562 C 534.964844 254.976562 457.359375 254.726562 379.628906 254.976562 C 379.59375 247.738281 379.59375 240.726562 379.628906 233.949219 C 466.496094 233.949219 553.363281 233.949219 640.226562 233.949219 C 640.226562 337.339844 640.226562 440.734375 640.226562 544.125 C 466.996094 544.125 293.765625 544.125 120.535156 544.125 C 120.535156 440.734375 120.535156 337.339844 120.535156 233.949219 C 206.148438 233.949219 291.761719 233.949219 377.378906 233.949219 Z M 377.378906 233.949219 "/>
</g>
<mask id="mask2">
  <g filter="url(#alpha)">
<rect x="0" y="0" width="751" height="724" style="fill:rgb(0%,0%,0%);fill-opacity:0.980392;stroke:none;"/>
  </g>
</mask>
<clipPath id="clip3">
  <rect x="0" y="0" width="751" height="724"/>
</clipPath>
<g id="surface11" clip-path="url(#clip3)">
<path style=" stroke:none;fill-rule:evenodd;fill:rgb(12.54902%,34.901961%,47.058824%);fill-opacity:1;" d="M 750.625 695.835938 C 750.625 696.085938 750.625 696.335938 750.625 696.585938 C 500.292969 696.585938 249.957031 696.585938 -0.375 696.585938 C -0.375 696.335938 -0.375 696.085938 -0.375 695.835938 C 40.03125 646.785156 80.332031 597.59375 120.535156 548.257812 C 293.515625 547.757812 466.496094 547.757812 639.476562 548.257812 C 676.710938 597.375 713.761719 646.570312 750.625 695.835938 Z M 750.625 695.835938 "/>
</g>
<mask id="mask3">
  <g filter="url(#alpha)">
<rect x="0" y="0" width="751" height="724" style="fill:rgb(0%,0%,0%);fill-opacity:0.996078;stroke:none;"/>
  </g>
</mask>
<clipPath id="clip4">
  <rect x="0" y="0" width="751" height="724"/>
</clipPath>
<g id="surface14" clip-path="url(#clip4)">
<path style=" stroke:none;fill-rule:evenodd;fill:rgb(3.529412%,14.901961%,23.921569%);fill-opacity:1;" d="M -0.375 696.585938 C 249.957031 696.585938 500.292969 696.585938 750.625 696.585938 C 750.625 705.597656 750.625 714.613281 750.625 723.625 C 500.292969 723.625 249.957031 723.625 -0.375 723.625 C -0.375 714.613281 -0.375 705.597656 -0.375 696.585938 Z M -0.375 696.585938 "/>
</g>
</defs>
<g id="surface1">
<use xlink:href="#surface5" mask="url(#mask0)"/>
<use xlink:href="#surface8" mask="url(#mask1)"/>
<path style=" stroke:none;fill-rule:evenodd;fill:rgb(65.882353%,69.411765%,75.686275%);fill-opacity:1;" d="M 378.878906 254.976562 C 379.128906 254.976562 379.378906 254.976562 379.628906 254.976562 C 457.359375 254.726562 534.964844 254.976562 612.441406 255.726562 C 534.835938 255.726562 457.234375 255.726562 379.628906 255.726562 C 379.628906 260.484375 379.628906 265.242188 379.628906 269.996094 C 378.886719 265.132812 378.636719 260.125 378.878906 254.976562 Z M 378.878906 254.976562 "/>
<path style=" stroke:none;fill-rule:evenodd;fill:rgb(99.215686%,99.215686%,99.607843%);fill-opacity:1;" d="M 377.378906 254.976562 C 377.378906 259.984375 377.378906 264.992188 377.378906 269.996094 C 376.625 270.246094 376.125 270.75 375.875 271.5 C 375.375 271.5 375.125 271.75 375.125 272.25 C 373.871094 272.25 372.621094 272.25 371.371094 272.25 C 367.507812 269.363281 363.753906 269.363281 360.105469 272.25 C 316.015625 272.003906 271.957031 272.253906 227.929688 273.003906 C 227.679688 287.398438 227.425781 301.792969 227.175781 316.1875 C 227.175781 330.839844 227.679688 345.234375 228.679688 359.371094 C 257.089844 359.996094 285.628906 360.371094 314.292969 360.496094 C 302.519531 365.445312 291.128906 371.078125 280.121094 377.394531 C 278.976562 379.195312 277.851562 380.949219 276.742188 382.652344 C 260.472656 382.652344 244.199219 382.652344 227.929688 382.652344 C 227.929688 389.414062 227.929688 396.171875 227.929688 402.929688 C 246.203125 402.929688 264.476562 402.929688 282.75 402.929688 C 283.882812 404.195312 284.636719 405.695312 285.003906 407.4375 C 265.980469 407.4375 246.953125 407.4375 227.929688 407.4375 C 227.929688 410.191406 227.929688 412.945312 227.929688 415.699219 C 248.207031 415.699219 268.484375 415.699219 288.757812 415.699219 C 289.261719 416.699219 289.761719 417.703125 290.261719 418.703125 C 270.984375 419.203125 251.710938 419.703125 232.433594 420.207031 C 231.972656 420.289062 231.59375 420.539062 231.308594 420.957031 C 230.933594 431.21875 230.808594 441.480469 230.933594 451.75 C 215.023438 458.765625 199.253906 466.152344 183.621094 473.90625 C 183.109375 482.542969 182.609375 491.179688 182.117188 499.816406 C 171.394531 505.679688 160.628906 511.5625 149.824219 517.464844 C 149.257812 517.96875 149.007812 518.59375 149.074219 519.34375 C 149.074219 519.59375 149.074219 519.84375 149.074219 520.09375 C 147.574219 431.976562 147.070312 343.601562 147.570312 254.976562 C 224.171875 254.976562 300.777344 254.976562 377.378906 254.976562 Z M 377.378906 254.976562 "/>
<path style=" stroke:none;fill-rule:evenodd;fill:rgb(99.607843%,99.607843%,99.607843%);fill-opacity:1;" d="M 612.441406 255.726562 C 612.441406 257.480469 612.441406 259.234375 612.441406 260.984375 C 611.695312 260.855469 611.195312 261.105469 610.9375 261.738281 C 596.339844 269.414062 581.820312 277.296875 567.378906 285.394531 C 566.652344 288.953125 566.402344 292.582031 566.628906 296.285156 C 555.980469 301.484375 545.214844 306.492188 534.335938 311.304688 C 534.460938 298.785156 534.335938 286.269531 533.960938 273.753906 C 533.585938 273.378906 533.210938 273.003906 532.835938 272.625 C 488.023438 272.25 443.214844 272.125 398.40625 272.25 C 394.789062 269.355469 391.03125 269.355469 387.140625 272.25 C 385.636719 272.25 384.136719 272.25 382.632812 272.25 C 382.0625 270.925781 381.058594 270.175781 379.628906 269.996094 C 379.628906 265.242188 379.628906 260.484375 379.628906 255.726562 C 457.234375 255.726562 534.835938 255.726562 612.441406 255.726562 Z M 612.441406 255.726562 "/>
<path style=" stroke:none;fill-rule:evenodd;fill:rgb(87.843137%,88.627451%,88.235294%);fill-opacity:1;" d="M 610.9375 261.738281 C 611.691406 347.480469 611.941406 433.347656 611.691406 519.34375 C 457.484375 519.34375 303.277344 519.34375 149.074219 519.34375 C 149.007812 518.59375 149.257812 517.96875 149.824219 517.464844 C 160.628906 511.5625 171.394531 505.679688 182.117188 499.816406 C 182.859375 504.179688 183.109375 508.683594 182.867188 513.335938 C 310.789062 513.335938 438.710938 513.335938 566.628906 513.335938 C 566.628906 440.984375 566.628906 368.632812 566.628906 296.285156 C 566.402344 292.582031 566.652344 288.953125 567.378906 285.394531 C 581.820312 277.296875 596.339844 269.414062 610.9375 261.738281 Z M 610.9375 261.738281 "/>
<path style=" stroke:none;fill-rule:evenodd;fill:rgb(3.529412%,18.823529%,25.490196%);fill-opacity:1;" d="M 378.878906 254.976562 C 378.636719 260.125 378.886719 265.132812 379.628906 269.996094 C 381.058594 270.175781 382.0625 270.925781 382.632812 272.25 C 382.539062 273.539062 382.289062 274.792969 381.882812 276.007812 C 377.761719 277.933594 375.761719 276.429688 375.875 271.5 C 376.125 270.75 376.625 270.246094 377.378906 269.996094 C 377.878906 264.992188 378.378906 259.984375 378.878906 254.976562 Z M 378.878906 254.976562 "/>
<path style=" stroke:none;fill-rule:evenodd;fill:rgb(55.686275%,74.901961%,84.705882%);fill-opacity:1;" d="M 398.40625 272.25 C 443.214844 272.125 488.023438 272.25 532.835938 272.625 C 533.210938 273.003906 533.585938 273.378906 533.960938 273.753906 C 534.335938 286.269531 534.460938 298.785156 534.335938 311.304688 C 534.585938 327.335938 534.335938 343.355469 533.585938 359.371094 C 511.589844 359.992188 489.558594 360.367188 467.496094 360.496094 C 470.933594 367.925781 474.4375 375.308594 478.011719 382.652344 C 481.238281 389.648438 484.492188 396.65625 487.773438 403.683594 C 488.070312 405.023438 488.570312 406.273438 489.277344 407.4375 C 490.570312 410.007812 491.070312 412.757812 490.777344 415.699219 C 490.289062 417.152344 490.039062 418.65625 490.027344 420.207031 C 503.546875 420.207031 517.0625 420.207031 530.582031 420.207031 C 530.828125 449.175781 530.578125 478.089844 529.832031 506.949219 C 430.449219 507.449219 331.066406 507.449219 231.683594 506.949219 C 230.9375 488.605469 230.6875 470.207031 230.933594 451.75 C 230.808594 441.480469 230.933594 431.21875 231.308594 420.957031 C 231.59375 420.539062 231.972656 420.289062 232.433594 420.207031 C 251.96875 420.457031 271.492188 420.207031 291.011719 419.453125 C 290.917969 419 290.667969 418.75 290.261719 418.703125 C 289.761719 417.703125 289.261719 416.699219 288.757812 415.699219 C 287.699219 412.828125 286.449219 410.074219 285.003906 407.4375 C 284.636719 405.695312 283.882812 404.195312 282.75 402.929688 C 280.804688 398.472656 278.929688 393.96875 277.117188 389.414062 C 276.746094 387.171875 276.621094 384.921875 276.742188 382.652344 C 277.851562 380.949219 278.976562 379.195312 280.121094 377.394531 C 291.128906 371.078125 302.519531 365.445312 314.292969 360.496094 C 285.628906 360.371094 257.089844 359.996094 228.679688 359.371094 C 343.832031 359.121094 343.832031 358.871094 228.679688 358.621094 C 228.679688 330.332031 228.679688 302.042969 228.679688 273.753906 C 271.988281 273.753906 315.292969 273.753906 358.601562 273.753906 C 358.601562 274.253906 358.601562 274.753906 358.601562 275.253906 C 317.296875 275.253906 275.992188 275.253906 234.6875 275.253906 C 234.6875 302.542969 234.6875 329.832031 234.6875 357.117188 C 236.855469 357.347656 238.855469 357.097656 240.695312 356.367188 C 241.195312 356.367188 241.695312 356.367188 242.199219 356.367188 C 268.929688 357.238281 295.714844 357.363281 322.554688 356.742188 C 330.238281 353.3125 337.75 349.683594 345.085938 345.851562 C 346.6875 345.8125 347.6875 345.0625 348.089844 343.597656 C 348.578125 343.828125 349.078125 344.078125 349.589844 344.351562 C 376.066406 331.738281 402.601562 319.34375 429.195312 307.175781 C 437.253906 305.179688 443.136719 307.808594 446.84375 315.058594 C 453.1875 328.5 459.320312 342.015625 465.246094 355.617188 C 485.507812 357.113281 506.035156 357.613281 526.828125 357.117188 C 526.828125 329.832031 526.828125 302.542969 526.828125 275.253906 C 484.519531 275.253906 442.214844 275.253906 399.90625 275.253906 C 399.734375 274.082031 399.230469 273.082031 398.40625 272.25 Z M 398.40625 272.25 "/>
<path style=" stroke:none;fill-rule:evenodd;fill:rgb(55.294118%,74.509804%,84.705882%);fill-opacity:1;" d="M 360.105469 272.25 C 359.855469 273.003906 359.351562 273.503906 358.601562 273.753906 C 315.292969 273.753906 271.988281 273.753906 228.679688 273.753906 C 228.679688 302.042969 228.679688 330.332031 228.679688 358.621094 C 343.832031 358.871094 343.832031 359.121094 228.679688 359.371094 C 227.679688 345.234375 227.175781 330.839844 227.175781 316.1875 C 227.425781 301.792969 227.679688 287.398438 227.929688 273.003906 C 271.957031 272.253906 316.015625 272.003906 360.105469 272.25 Z M 360.105469 272.25 "/>
<path style=" stroke:none;fill-rule:evenodd;fill:rgb(24.705882%,36.078431%,40.784314%);fill-opacity:1;" d="M 371.371094 272.25 C 372.382812 273.078125 373.507812 273.828125 374.75 274.503906 C 375.113281 273.792969 375.238281 273.042969 375.125 272.25 C 375.125 271.75 375.375 271.5 375.875 271.5 C 375.761719 276.429688 377.761719 277.933594 381.882812 276.007812 C 383.796875 274.929688 385.550781 273.679688 387.140625 272.25 C 391.03125 269.355469 394.789062 269.355469 398.40625 272.25 C 399.230469 273.082031 399.734375 274.082031 399.90625 275.253906 C 399.90625 276.257812 399.90625 277.257812 399.90625 278.257812 C 399.636719 279.664062 398.886719 280.792969 397.65625 281.640625 C 393.625 281.765625 389.621094 282.144531 385.636719 282.765625 C 386.375 283.878906 387.25 284.878906 388.265625 285.769531 C 388.828125 286.621094 388.703125 287.375 387.890625 288.023438 C 385.652344 286.15625 383.523438 284.15625 381.507812 282.015625 C 381.378906 285.90625 381 289.664062 380.382812 293.28125 C 380.382812 289.523438 380.382812 285.769531 380.382812 282.015625 C 379.628906 282.015625 378.878906 282.015625 378.128906 282.015625 C 378.367188 285.171875 378.117188 288.175781 377.378906 291.027344 C 377.503906 288.011719 377.375 285.007812 377.003906 282.015625 C 374.988281 284.15625 372.859375 286.15625 370.617188 288.023438 C 369.804688 287.375 369.679688 286.621094 370.242188 285.769531 C 371.371094 284.644531 372.496094 283.515625 373.621094 282.390625 C 369.367188 282.140625 365.113281 281.890625 360.855469 281.640625 C 359.625 280.792969 358.871094 279.664062 358.601562 278.257812 C 358.601562 277.257812 358.601562 276.257812 358.601562 275.253906 C 358.601562 274.753906 358.601562 274.253906 358.601562 273.753906 C 359.351562 273.503906 359.855469 273.003906 360.105469 272.25 C 363.753906 269.363281 367.507812 269.363281 371.371094 272.25 Z M 371.371094 272.25 "/>
<path style=" stroke:none;fill-rule:evenodd;fill:rgb(57.647059%,76.078431%,85.098039%);fill-opacity:1;" d="M 397.65625 276.007812 C 393.898438 276.007812 390.144531 276.007812 386.390625 276.007812 C 388.828125 273.410156 391.832031 272.285156 395.402344 272.625 C 396.632812 273.472656 397.386719 274.601562 397.65625 276.007812 Z M 397.65625 276.007812 "/>
<path style=" stroke:none;fill-rule:evenodd;fill:rgb(58.431373%,75.686275%,83.921569%);fill-opacity:1;" d="M 382.632812 272.25 C 384.136719 272.25 385.636719 272.25 387.140625 272.25 C 385.550781 273.679688 383.796875 274.929688 381.882812 276.007812 C 382.289062 274.792969 382.539062 273.539062 382.632812 272.25 Z M 382.632812 272.25 "/>
<path style=" stroke:none;fill-rule:evenodd;fill:rgb(54.509804%,74.117647%,84.313725%);fill-opacity:1;" d="M 370.617188 275.253906 C 367.460938 275.492188 364.457031 275.242188 361.605469 274.503906 C 362.21875 273.019531 363.347656 272.265625 364.984375 272.25 C 367.285156 272.585938 369.160156 273.585938 370.617188 275.253906 Z M 370.617188 275.253906 "/>
<path style=" stroke:none;fill-rule:evenodd;fill:rgb(62.745098%,78.823529%,86.27451%);fill-opacity:1;" d="M 371.371094 272.25 C 372.621094 272.25 373.871094 272.25 375.125 272.25 C 375.238281 273.042969 375.113281 273.792969 374.75 274.503906 C 373.507812 273.828125 372.382812 273.078125 371.371094 272.25 Z M 371.371094 272.25 "/>
<path style=" stroke:none;fill-rule:evenodd;fill:rgb(61.176471%,80%,84.705882%);fill-opacity:1;" d="M 399.90625 275.253906 C 442.214844 275.253906 484.519531 275.253906 526.828125 275.253906 C 526.828125 302.542969 526.828125 329.832031 526.828125 357.117188 C 506.035156 357.613281 485.507812 357.113281 465.246094 355.617188 C 485.464844 356.359375 505.742188 356.609375 526.074219 356.367188 C 526.074219 329.832031 526.074219 303.292969 526.074219 276.757812 C 484.398438 276.007812 442.589844 275.757812 400.660156 276.007812 C 400.835938 276.976562 400.585938 277.726562 399.90625 278.257812 C 399.90625 277.257812 399.90625 276.257812 399.90625 275.253906 Z M 399.90625 275.253906 "/>
<path style=" stroke:none;fill-rule:evenodd;fill:rgb(69.411765%,83.137255%,85.490196%);fill-opacity:1;" d="M 358.601562 275.253906 C 358.601562 276.257812 358.601562 277.257812 358.601562 278.257812 C 357.921875 277.726562 357.671875 276.976562 357.851562 276.007812 C 317.046875 276.007812 276.242188 276.007812 235.4375 276.007812 C 235.4375 302.792969 235.4375 329.578125 235.4375 356.367188 C 237.191406 356.367188 238.945312 356.367188 240.695312 356.367188 C 238.855469 357.097656 236.855469 357.347656 234.6875 357.117188 C 234.6875 329.832031 234.6875 302.542969 234.6875 275.253906 C 275.992188 275.253906 317.296875 275.253906 358.601562 275.253906 Z M 358.601562 275.253906 "/>
<path style=" stroke:none;fill-rule:evenodd;fill:rgb(76.470588%,88.235294%,85.882353%);fill-opacity:1;" d="M 358.601562 278.257812 C 358.871094 279.664062 359.625 280.792969 360.855469 281.640625 C 365.113281 281.890625 369.367188 282.140625 373.621094 282.390625 C 372.496094 283.515625 371.371094 284.644531 370.242188 285.769531 C 369.679688 286.621094 369.804688 287.375 370.617188 288.023438 C 372.859375 286.15625 374.988281 284.15625 377.003906 282.015625 C 377.375 285.007812 377.503906 288.011719 377.378906 291.027344 C 376.710938 297.492188 373.957031 302.875 369.117188 307.175781 C 360.484375 309.292969 353.601562 313.925781 348.464844 321.070312 C 347.507812 323.238281 346.378906 325.242188 345.085938 327.078125 C 310.664062 336.71875 276.367188 346.484375 242.199219 356.367188 C 241.695312 356.367188 241.195312 356.367188 240.695312 356.367188 C 238.945312 356.367188 237.191406 356.367188 235.4375 356.367188 C 235.4375 329.578125 235.4375 302.792969 235.4375 276.007812 C 276.242188 276.007812 317.046875 276.007812 357.851562 276.007812 C 357.671875 276.976562 357.921875 277.726562 358.601562 278.257812 Z M 358.601562 278.257812 "/>
<path style=" stroke:none;fill-rule:evenodd;fill:rgb(77.647059%,88.627451%,85.882353%);fill-opacity:1;" d="M 386.390625 276.007812 C 390.144531 276.007812 393.898438 276.007812 397.65625 276.007812 C 397.816406 277.242188 397.5625 278.367188 396.902344 279.386719 C 391.878906 280.011719 386.871094 279.882812 381.882812 279.011719 C 383.195312 277.695312 384.695312 276.695312 386.390625 276.007812 Z M 386.390625 276.007812 "/>
<path style=" stroke:none;fill-rule:evenodd;fill:rgb(76.470588%,88.235294%,85.882353%);fill-opacity:1;" d="M 526.074219 276.757812 C 523.542969 276.886719 521.039062 277.261719 518.566406 277.882812 C 462.53125 293.773438 406.453125 309.667969 350.339844 325.574219 C 354.035156 318.007812 360.042969 313.378906 368.367188 311.679688 C 375.277344 307.507812 379.28125 301.375 380.382812 293.28125 C 381 289.664062 381.378906 285.90625 381.507812 282.015625 C 383.523438 284.15625 385.652344 286.15625 387.890625 288.023438 C 388.703125 287.375 388.828125 286.621094 388.265625 285.769531 C 387.25 284.878906 386.375 283.878906 385.636719 282.765625 C 389.621094 282.144531 393.625 281.765625 397.65625 281.640625 C 398.886719 280.792969 399.636719 279.664062 399.90625 278.257812 C 400.585938 277.726562 400.835938 276.976562 400.660156 276.007812 C 442.589844 275.757812 484.398438 276.007812 526.074219 276.757812 Z M 526.074219 276.757812 "/>
<path style=" stroke:none;fill-rule:evenodd;fill:rgb(60.392157%,82.352941%,84.705882%);fill-opacity:1;" d="M 526.074219 276.757812 C 526.074219 303.292969 526.074219 329.832031 526.074219 356.367188 C 505.742188 356.609375 485.464844 356.359375 465.246094 355.617188 C 459.320312 342.015625 453.1875 328.5 446.84375 315.058594 C 443.136719 307.808594 437.253906 305.179688 429.195312 307.175781 C 402.601562 319.34375 376.066406 331.738281 349.589844 344.351562 C 349.078125 344.078125 348.578125 343.828125 348.089844 343.597656 C 347.25 339.65625 347.125 335.652344 347.714844 331.582031 C 348.003906 329.253906 348.878906 327.253906 350.339844 325.574219 C 406.453125 309.667969 462.53125 293.773438 518.566406 277.882812 C 521.039062 277.261719 523.542969 276.886719 526.074219 276.757812 Z M 526.074219 276.757812 "/>
<path style=" stroke:none;fill-rule:evenodd;fill:rgb(77.254902%,88.627451%,86.27451%);fill-opacity:1;" d="M 361.605469 274.503906 C 364.457031 275.242188 367.460938 275.492188 370.617188 275.253906 C 378.949219 278.824219 378.449219 280.324219 369.117188 279.761719 C 366.613281 279.511719 364.109375 279.261719 361.605469 279.011719 C 360.664062 277.402344 360.664062 275.898438 361.605469 274.503906 Z M 361.605469 274.503906 "/>
<path style=" stroke:none;fill-rule:evenodd;fill:rgb(92.941176%,93.333333%,93.72549%);fill-opacity:1;" d="M 566.628906 296.285156 C 566.628906 368.632812 566.628906 440.984375 566.628906 513.335938 C 438.710938 513.335938 310.789062 513.335938 182.867188 513.335938 C 183.109375 508.683594 182.859375 504.179688 182.117188 499.816406 C 182.609375 491.179688 183.109375 482.542969 183.621094 473.90625 C 199.253906 466.152344 215.023438 458.765625 230.933594 451.75 C 230.6875 470.207031 230.9375 488.605469 231.683594 506.949219 C 331.066406 507.449219 430.449219 507.449219 529.832031 506.949219 C 530.578125 478.089844 530.828125 449.175781 530.582031 420.207031 C 517.0625 420.207031 503.546875 420.207031 490.027344 420.207031 C 490.039062 418.65625 490.289062 417.152344 490.777344 415.699219 C 505.046875 415.699219 519.316406 415.699219 533.585938 415.699219 C 533.585938 412.945312 533.585938 410.191406 533.585938 407.4375 C 518.816406 407.4375 504.046875 407.4375 489.277344 407.4375 C 488.570312 406.273438 488.070312 405.023438 487.773438 403.683594 C 503.042969 403.683594 518.316406 403.683594 533.585938 403.683594 C 533.585938 396.671875 533.585938 389.664062 533.585938 382.652344 C 515.0625 382.652344 496.535156 382.652344 478.011719 382.652344 C 474.4375 375.308594 470.933594 367.925781 467.496094 360.496094 C 489.558594 360.367188 511.589844 359.992188 533.585938 359.371094 C 534.335938 343.355469 534.585938 327.335938 534.335938 311.304688 C 545.214844 306.492188 555.980469 301.484375 566.628906 296.285156 Z M 566.628906 296.285156 "/>
<path style=" stroke:none;fill-rule:evenodd;fill:rgb(4.313725%,16.862745%,23.921569%);fill-opacity:1;" d="M 380.382812 293.28125 C 379.28125 301.375 375.277344 307.507812 368.367188 311.679688 C 360.042969 313.378906 354.035156 318.007812 350.339844 325.574219 C 348.878906 327.253906 348.003906 329.253906 347.714844 331.582031 C 347.125 335.652344 347.25 339.65625 348.089844 343.597656 C 347.6875 345.0625 346.6875 345.8125 345.085938 345.851562 C 343.082031 339.59375 343.082031 333.335938 345.085938 327.078125 C 346.378906 325.242188 347.507812 323.238281 348.464844 321.070312 C 353.601562 313.925781 360.484375 309.292969 369.117188 307.175781 C 373.957031 302.875 376.710938 297.492188 377.378906 291.027344 C 378.117188 288.175781 378.367188 285.171875 378.128906 282.015625 C 378.878906 282.015625 379.628906 282.015625 380.382812 282.015625 C 380.382812 285.769531 380.382812 289.523438 380.382812 293.28125 Z M 380.382812 293.28125 "/>
<path style=" stroke:none;fill-rule:evenodd;fill:rgb(26.27451%,37.254902%,41.568627%);fill-opacity:1;" d="M 423.1875 320.316406 C 429.332031 318.953125 434.214844 320.707031 437.832031 325.574219 C 450.851562 353.613281 463.867188 381.652344 476.886719 409.691406 C 478.535156 416.78125 476.15625 421.914062 469.75 425.085938 C 427.855469 444.160156 386.050781 463.433594 344.332031 482.917969 C 337.113281 484.941406 331.980469 482.566406 328.9375 475.78125 C 316.3125 448.15625 303.542969 420.617188 290.636719 393.167969 C 289.410156 387.734375 291.039062 383.351562 295.519531 380.023438 C 338.234375 360.292969 380.789062 340.390625 423.1875 320.316406 Z M 423.1875 320.316406 "/>
<path style=" stroke:none;fill-rule:evenodd;fill:rgb(60.392157%,81.960784%,84.705882%);fill-opacity:1;" d="M 345.085938 327.078125 C 343.082031 333.335938 343.082031 339.59375 345.085938 345.851562 C 337.75 349.683594 330.238281 353.3125 322.554688 356.742188 C 295.714844 357.363281 268.929688 357.238281 242.199219 356.367188 C 276.367188 346.484375 310.664062 336.71875 345.085938 327.078125 Z M 345.085938 327.078125 "/>
<path style=" stroke:none;fill-rule:evenodd;fill:rgb(60.784314%,80%,84.313725%);fill-opacity:1;" d="M 366.863281 357.117188 C 365.574219 357.019531 364.324219 356.769531 363.109375 356.367188 C 363.097656 354.878906 363.847656 354.125 365.363281 354.113281 C 366.90625 354.527344 368.15625 355.402344 369.117188 356.742188 C 368.40625 357.105469 367.652344 357.230469 366.863281 357.117188 Z M 366.863281 357.117188 "/>
<path style=" stroke:none;fill-rule:evenodd;fill:rgb(98.823529%,98.823529%,98.823529%);fill-opacity:1;" d="M 441.964844 355.617188 C 442.710938 355.550781 443.335938 355.800781 443.839844 356.367188 C 445.621094 360.554688 447.5 364.683594 449.472656 368.757812 C 426.125 379.746094 402.71875 390.636719 379.253906 401.429688 C 377.332031 396.832031 375.203125 392.324219 372.871094 387.910156 C 395.949219 377.121094 418.976562 366.355469 441.964844 355.617188 Z M 441.964844 355.617188 "/>
<path style=" stroke:none;fill-rule:evenodd;fill:rgb(1.568627%,16.078431%,23.137255%);fill-opacity:1;" d="M 368.367188 360.875 C 366.816406 360.859375 365.3125 360.609375 363.859375 360.121094 C 362.410156 359.015625 362.160156 357.761719 363.109375 356.367188 C 364.324219 356.769531 365.574219 357.019531 366.863281 357.117188 C 375.867188 357.574219 383.5 354.320312 389.769531 347.355469 C 385.152344 355.558594 378.019531 360.066406 368.367188 360.875 Z M 368.367188 360.875 "/>
<path style=" stroke:none;fill-rule:evenodd;fill:rgb(89.411765%,90.196078%,90.980392%);fill-opacity:1;" d="M 363.859375 360.121094 C 365.3125 360.609375 366.816406 360.859375 368.367188 360.875 C 367.027344 362.515625 365.402344 362.765625 363.484375 361.625 C 362.964844 360.921875 363.089844 360.421875 363.859375 360.121094 Z M 363.859375 360.121094 "/>
<path style=" stroke:none;fill-rule:evenodd;fill:rgb(98.823529%,98.823529%,98.823529%);fill-opacity:1;" d="M 452.476562 378.148438 C 453.136719 378.050781 453.636719 378.300781 453.980469 378.898438 C 455.980469 383.15625 457.984375 387.410156 459.988281 391.664062 C 436.777344 402.574219 413.496094 413.339844 390.144531 423.960938 C 387.496094 419.664062 385.242188 415.15625 383.386719 410.441406 C 406.476562 399.644531 429.507812 388.878906 452.476562 378.148438 Z M 452.476562 378.148438 "/>
<path style=" stroke:none;fill-rule:evenodd;fill:rgb(76.862745%,88.235294%,87.843137%);fill-opacity:1;" d="M 276.742188 382.652344 C 276.621094 384.921875 276.746094 387.171875 277.117188 389.414062 C 278.929688 393.96875 280.804688 398.472656 282.75 402.929688 C 264.476562 402.929688 246.203125 402.929688 227.929688 402.929688 C 227.929688 396.171875 227.929688 389.414062 227.929688 382.652344 C 244.199219 382.652344 260.472656 382.652344 276.742188 382.652344 Z M 276.742188 382.652344 "/>
<path style=" stroke:none;fill-rule:evenodd;fill:rgb(77.254902%,88.235294%,87.843137%);fill-opacity:1;" d="M 478.011719 382.652344 C 496.535156 382.652344 515.0625 382.652344 533.585938 382.652344 C 533.585938 389.664062 533.585938 396.671875 533.585938 403.683594 C 518.316406 403.683594 503.042969 403.683594 487.773438 403.683594 C 484.492188 396.65625 481.238281 389.648438 478.011719 382.652344 Z M 478.011719 382.652344 "/>
<path style=" stroke:none;fill-rule:evenodd;fill:rgb(81.960784%,90.588235%,88.627451%);fill-opacity:1;" d="M 369.117188 392.417969 C 369.773438 392.320312 370.273438 392.570312 370.617188 393.167969 C 366.605469 396.039062 367.109375 397.164062 372.121094 396.546875 C 371.371094 396.921875 370.617188 397.296875 369.867188 397.675781 C 369.101562 398.050781 368.976562 398.550781 369.492188 399.175781 C 370.855469 399.363281 372.230469 399.613281 373.621094 399.925781 C 372.128906 400.675781 370.625 401.429688 369.117188 402.179688 C 367.964844 399.75 366.710938 397.371094 365.363281 395.046875 C 366.664062 394.152344 367.914062 393.277344 369.117188 392.417969 Z M 369.117188 392.417969 "/>
<path style=" stroke:none;fill-rule:evenodd;fill:rgb(79.607843%,88.235294%,86.666667%);fill-opacity:1;" d="M 349.589844 401.429688 C 350.621094 401.3125 351.625 401.4375 352.59375 401.804688 C 354.347656 403.558594 356.097656 405.308594 357.851562 407.0625 C 357.457031 407.582031 356.957031 407.957031 356.347656 408.1875 C 355.507812 407.1875 354.507812 406.8125 353.34375 407.0625 C 352.859375 408.269531 352.234375 409.398438 351.46875 410.441406 C 350.597656 407.492188 349.972656 404.488281 349.589844 401.429688 Z M 349.589844 401.429688 "/>
<path style=" stroke:none;fill-rule:evenodd;fill:rgb(81.176471%,89.411765%,87.45098%);fill-opacity:1;" d="M 362.359375 395.421875 C 364.394531 397.214844 365.894531 399.46875 366.863281 402.179688 C 366.613281 402.679688 366.363281 403.179688 366.113281 403.683594 C 365.046875 402.304688 364.171875 400.800781 363.484375 399.175781 C 363.347656 401.222656 362.972656 403.226562 362.359375 405.183594 C 361.089844 403.28125 359.589844 401.902344 357.851562 401.054688 C 359.425781 402.773438 359.925781 404.652344 359.351562 406.6875 C 358.101562 404.183594 356.851562 401.679688 355.597656 399.175781 C 356.515625 398.339844 357.519531 398.214844 358.601562 398.800781 C 359.480469 399.675781 360.355469 400.554688 361.230469 401.429688 C 361.433594 399.359375 361.8125 397.359375 362.359375 395.421875 Z M 362.359375 395.421875 "/>
<path style=" stroke:none;fill-rule:evenodd;fill:rgb(24.705882%,36.078431%,40.392157%);fill-opacity:1;" d="M 351.84375 403.683594 C 353.21875 404.164062 353.46875 404.914062 352.59375 405.9375 C 351.929688 405.316406 351.679688 404.566406 351.84375 403.683594 Z M 351.84375 403.683594 "/>
<path style=" stroke:none;fill-rule:evenodd;fill:rgb(80%,88.627451%,87.058824%);fill-opacity:1;" d="M 345.085938 403.683594 C 347.109375 405.449219 348.609375 407.703125 349.589844 410.441406 C 349.339844 411.191406 348.839844 411.695312 348.089844 411.945312 C 346.257812 410.964844 344.632812 409.714844 343.207031 408.1875 C 343.203125 409.589844 343.578125 410.96875 344.332031 412.320312 C 344.082031 412.695312 343.832031 413.070312 343.582031 413.445312 C 342.140625 411.3125 340.886719 409.0625 339.828125 406.6875 C 342.4375 405.789062 344.5625 406.539062 346.210938 408.941406 C 345.882812 407.246094 345.507812 405.492188 345.085938 403.683594 Z M 345.085938 403.683594 "/>
<path style=" stroke:none;fill-rule:evenodd;fill:rgb(76.862745%,88.235294%,88.235294%);fill-opacity:1;" d="M 285.003906 407.4375 C 286.449219 410.074219 287.699219 412.828125 288.757812 415.699219 C 268.484375 415.699219 248.207031 415.699219 227.929688 415.699219 C 227.929688 412.945312 227.929688 410.191406 227.929688 407.4375 C 246.953125 407.4375 265.980469 407.4375 285.003906 407.4375 Z M 285.003906 407.4375 "/>
<path style=" stroke:none;fill-rule:evenodd;fill:rgb(76.862745%,87.843137%,87.843137%);fill-opacity:1;" d="M 489.277344 407.4375 C 504.046875 407.4375 518.816406 407.4375 533.585938 407.4375 C 533.585938 410.191406 533.585938 412.945312 533.585938 415.699219 C 519.316406 415.699219 505.046875 415.699219 490.777344 415.699219 C 491.070312 412.757812 490.570312 410.007812 489.277344 407.4375 Z M 489.277344 407.4375 "/>
<path style=" stroke:none;fill-rule:evenodd;fill:rgb(79.215686%,87.843137%,86.27451%);fill-opacity:1;" d="M 333.070312 408.941406 C 335.980469 408.46875 337.355469 409.722656 337.199219 412.695312 C 338.074219 413.570312 338.949219 414.445312 339.828125 415.324219 C 339.578125 415.574219 339.328125 415.824219 339.078125 416.074219 C 337.636719 416.054688 336.386719 415.429688 335.320312 414.195312 C 334.605469 414.972656 334.605469 415.847656 335.320312 416.824219 C 334.9375 418.195312 334.3125 418.324219 333.445312 417.203125 C 332.640625 415.167969 331.765625 413.164062 330.816406 411.191406 C 331.445312 410.265625 332.199219 409.515625 333.070312 408.941406 Z M 333.070312 408.941406 "/>
<path style=" stroke:none;fill-rule:evenodd;fill:rgb(21.568627%,33.72549%,38.431373%);fill-opacity:1;" d="M 333.070312 410.441406 C 333.820312 410.441406 334.570312 410.441406 335.320312 410.441406 C 334.761719 413.304688 334.011719 413.304688 333.070312 410.441406 Z M 333.070312 410.441406 "/>
<path style=" stroke:none;fill-rule:evenodd;fill:rgb(77.647059%,86.27451%,85.098039%);fill-opacity:1;" d="M 327.8125 411.191406 C 328.46875 411.09375 328.96875 411.34375 329.3125 411.945312 C 328.570312 412.820312 327.816406 413.695312 327.058594 414.574219 C 327.3125 414.949219 327.5625 415.324219 327.8125 415.699219 C 328.765625 415.003906 329.765625 414.875 330.816406 415.324219 C 329.359375 416.003906 328.609375 417.132812 328.5625 418.703125 C 333.480469 418.101562 333.480469 418.855469 328.5625 420.957031 C 326.738281 419.066406 325.488281 416.8125 324.808594 414.195312 C 325.511719 412.855469 326.511719 411.851562 327.8125 411.191406 Z M 327.8125 411.191406 "/>
<path style=" stroke:none;fill-rule:evenodd;fill:rgb(80.392157%,89.019608%,87.058824%);fill-opacity:1;" d="M 375.125 417.203125 C 381.015625 417.347656 382.519531 419.976562 379.628906 425.085938 C 378.246094 425.933594 376.742188 426.308594 375.125 426.214844 C 374.703125 423.988281 373.953125 421.863281 372.871094 419.828125 C 373.300781 418.628906 374.050781 417.753906 375.125 417.203125 Z M 375.125 417.203125 "/>
<path style=" stroke:none;fill-rule:evenodd;fill:rgb(78.431373%,86.666667%,91.372549%);fill-opacity:1;" d="M 290.261719 418.703125 C 290.667969 418.75 290.917969 419 291.011719 419.453125 C 271.492188 420.207031 251.96875 420.457031 232.433594 420.207031 C 251.710938 419.703125 270.984375 419.203125 290.261719 418.703125 Z M 290.261719 418.703125 "/>
<path style=" stroke:none;fill-rule:evenodd;fill:rgb(80%,87.843137%,86.27451%);fill-opacity:1;" d="M 320.300781 414.949219 C 321.089844 414.835938 321.84375 414.960938 322.554688 415.324219 C 321.496094 415.601562 320.746094 416.226562 320.300781 417.203125 C 321.804688 417.703125 323.304688 418.203125 324.808594 418.703125 C 325.84375 421.457031 324.84375 423.207031 321.804688 423.960938 C 321.554688 423.710938 321.300781 423.460938 321.050781 423.210938 C 322.054688 422.457031 323.054688 421.707031 324.054688 420.957031 C 322.414062 420.414062 320.789062 419.914062 319.175781 419.453125 C 318.617188 417.671875 318.992188 416.167969 320.300781 414.949219 Z M 320.300781 414.949219 "/>
<path style=" stroke:none;fill-rule:evenodd;fill:rgb(80%,88.627451%,86.666667%);fill-opacity:1;" d="M 366.863281 420.957031 C 368.386719 420.835938 369.886719 420.960938 371.371094 421.332031 C 371.761719 423.53125 372.765625 425.410156 374.375 426.964844 C 373.996094 427.214844 373.621094 427.464844 373.246094 427.714844 C 372.394531 426.753906 371.394531 426 370.242188 425.460938 C 369.132812 426.492188 369.257812 427.621094 370.617188 428.84375 C 370.242188 429.21875 369.867188 429.59375 369.492188 429.96875 C 367.914062 427.5625 366.535156 425.058594 365.363281 422.457031 C 365.917969 421.945312 366.417969 421.445312 366.863281 420.957031 Z M 366.863281 420.957031 "/>
<path style=" stroke:none;fill-rule:evenodd;fill:rgb(21.568627%,33.72549%,38.431373%);fill-opacity:1;" d="M 368.367188 422.457031 C 370.960938 422.582031 371.210938 423.335938 369.117188 424.710938 C 368.449219 424.09375 368.199219 423.339844 368.367188 422.457031 Z M 368.367188 422.457031 "/>
<path style=" stroke:none;fill-rule:evenodd;fill:rgb(26.27451%,37.647059%,41.960784%);fill-opacity:1;" d="M 375.125 418.703125 C 378.503906 418.449219 379.878906 419.953125 379.253906 423.210938 C 378.738281 423.851562 378.113281 424.351562 377.378906 424.710938 C 376.035156 422.941406 375.285156 420.9375 375.125 418.703125 Z M 375.125 418.703125 "/>
<path style=" stroke:none;fill-rule:evenodd;fill:rgb(76.470588%,88.235294%,85.490196%);fill-opacity:1;" d="M 318.046875 478.785156 C 317.761719 479.859375 317.011719 480.488281 315.796875 480.664062 C 288.960938 487.9375 262.175781 495.320312 235.4375 502.820312 C 235.4375 476.03125 235.4375 449.246094 235.4375 422.457031 C 254.214844 422.332031 272.988281 422.457031 291.761719 422.835938 C 300.8125 441.3125 309.574219 459.960938 318.046875 478.785156 Z M 318.046875 478.785156 "/>
<path style=" stroke:none;fill-rule:evenodd;fill:rgb(76.470588%,88.235294%,85.490196%);fill-opacity:1;" d="M 526.828125 423.960938 C 497.113281 431.265625 467.570312 439.277344 438.207031 447.992188 C 437.753906 447.902344 437.503906 447.652344 437.457031 447.242188 C 452.390625 440.152344 467.410156 433.265625 482.515625 426.589844 C 484.667969 425.890625 486.417969 424.640625 487.773438 422.835938 C 494.285156 422.707031 500.792969 422.582031 507.300781 422.457031 C 514.078125 422.460938 520.589844 422.960938 526.828125 423.960938 Z M 526.828125 423.960938 "/>
<path style=" stroke:none;fill-rule:evenodd;fill:rgb(60.392157%,82.352941%,84.705882%);fill-opacity:1;" d="M 526.828125 423.960938 C 526.828125 450.496094 526.828125 477.035156 526.828125 503.570312 C 429.570312 503.820312 332.441406 503.570312 235.4375 502.820312 C 262.175781 495.320312 288.960938 487.9375 315.796875 480.664062 C 317.011719 480.488281 317.761719 479.859375 318.046875 478.785156 C 319.542969 483.890625 322.296875 488.273438 326.308594 491.929688 C 330.671875 494.167969 335.179688 494.417969 339.828125 492.679688 C 372.359375 477.457031 404.90625 462.3125 437.457031 447.242188 C 437.503906 447.652344 437.753906 447.902344 438.207031 447.992188 C 467.570312 439.277344 497.113281 431.265625 526.828125 423.960938 Z M 526.828125 423.960938 "/>
<path style=" stroke:none;fill-rule:evenodd;fill:rgb(80%,88.235294%,86.666667%);fill-opacity:1;" d="M 315.042969 417.203125 C 318.199219 419.277344 319.199219 422.15625 318.046875 425.839844 C 316.007812 427.453125 314.132812 427.328125 312.414062 425.460938 C 311.75 423.585938 310.875 421.832031 309.789062 420.207031 C 310.539062 419.203125 311.289062 419.203125 312.039062 420.207031 C 312.667969 421.457031 313.292969 422.707031 313.917969 423.960938 C 315.351562 426.054688 316.476562 425.929688 317.296875 423.585938 C 316.21875 421.554688 315.464844 419.425781 315.042969 417.203125 Z M 315.042969 417.203125 "/>
<path style=" stroke:none;fill-rule:evenodd;fill:rgb(80.784314%,88.627451%,87.058824%);fill-opacity:1;" d="M 360.105469 423.960938 C 364.851562 423.824219 366.726562 426.078125 365.738281 430.71875 C 362.996094 433.796875 360.492188 433.546875 358.226562 429.96875 C 357.488281 427.507812 358.113281 425.507812 360.105469 423.960938 Z M 360.105469 423.960938 "/>
<path style=" stroke:none;fill-rule:evenodd;fill:rgb(26.27451%,37.647059%,41.960784%);fill-opacity:1;" d="M 360.855469 425.460938 C 364.105469 426.082031 365.109375 427.957031 363.859375 431.09375 C 360.203125 430.878906 359.203125 429 360.855469 425.460938 Z M 360.855469 425.460938 "/>
<path style=" stroke:none;fill-rule:evenodd;fill:rgb(79.215686%,87.45098%,85.882353%);fill-opacity:1;" d="M 354.847656 426.964844 C 355.664062 427.054688 356.164062 427.554688 356.347656 428.46875 C 357.433594 431.09375 357.308594 433.597656 355.972656 435.976562 C 352.695312 430.839844 351.816406 431.339844 353.34375 437.480469 C 352.554688 437.589844 351.804688 437.464844 351.09375 437.105469 C 349.5 435.292969 348 433.417969 346.585938 431.472656 C 347.234375 430.65625 347.988281 430.53125 348.839844 431.09375 C 349.621094 432.535156 350.496094 433.914062 351.46875 435.226562 C 351.636719 433.265625 351.261719 431.386719 350.339844 429.59375 C 350.921875 428.667969 351.675781 428.417969 352.59375 428.84375 C 353.199219 430.171875 354.074219 431.300781 355.222656 432.222656 C 355.066406 430.53125 354.941406 428.777344 354.847656 426.964844 Z M 354.847656 426.964844 "/>
<path style=" stroke:none;fill-rule:evenodd;fill:rgb(79.215686%,86.666667%,85.490196%);fill-opacity:1;" d="M 336.824219 434.476562 C 337.707031 434.3125 338.457031 434.5625 339.078125 435.226562 C 336.015625 437.359375 336.515625 438.484375 340.578125 438.605469 C 342.675781 441.578125 341.800781 443.457031 337.949219 444.238281 C 337.574219 443.988281 337.199219 443.738281 336.824219 443.488281 C 338.957031 443.109375 339.957031 441.855469 339.828125 439.730469 C 334.273438 440.316406 333.273438 438.566406 336.824219 434.476562 Z M 336.824219 434.476562 "/>
<path style=" stroke:none;fill-rule:evenodd;fill:rgb(79.607843%,87.45098%,85.882353%);fill-opacity:1;" d="M 342.832031 432.222656 C 343.621094 432.109375 344.371094 432.234375 345.085938 432.597656 C 344.027344 432.875 343.273438 433.5 342.832031 434.476562 C 344.332031 434.976562 345.835938 435.476562 347.335938 435.976562 C 348.390625 438.582031 347.515625 440.335938 344.710938 441.234375 C 344.332031 440.984375 343.957031 440.734375 343.582031 440.484375 C 344.582031 439.730469 345.585938 438.980469 346.585938 438.230469 C 344.945312 437.6875 343.316406 437.1875 341.703125 436.726562 C 341.148438 434.945312 341.523438 433.441406 342.832031 432.222656 Z M 342.832031 432.222656 "/>
<path style=" stroke:none;fill-rule:evenodd;fill:rgb(80.784314%,89.803922%,87.843137%);fill-opacity:1;" d="M 329.3125 438.230469 C 332.003906 439.664062 334.253906 441.664062 336.074219 444.238281 C 335.839844 444.84375 335.464844 445.347656 334.945312 445.742188 C 332.132812 443.472656 330.507812 444.222656 330.066406 447.992188 C 328.996094 444.71875 328.746094 441.464844 329.3125 438.230469 Z M 329.3125 438.230469 "/>
<path style=" stroke:none;fill-rule:evenodd;fill:rgb(34.901961%,44.705882%,48.235294%);fill-opacity:1;" d="M 330.066406 440.484375 C 332.816406 441.890625 332.816406 442.890625 330.066406 443.488281 C 330.066406 442.488281 330.066406 441.484375 330.066406 440.484375 Z M 330.066406 440.484375 "/>
<path style=" stroke:none;fill-rule:evenodd;fill:rgb(80.784314%,89.019608%,87.058824%);fill-opacity:1;" d="M 322.554688 441.234375 C 323.832031 441.113281 325.082031 441.238281 326.308594 441.609375 C 327.523438 444.042969 327.023438 446.046875 324.808594 447.617188 C 326.050781 449.429688 325.546875 450.304688 323.304688 450.246094 C 322.777344 447.933594 322.027344 445.683594 321.050781 443.488281 C 321.382812 442.558594 321.886719 441.804688 322.554688 441.234375 Z M 322.554688 441.234375 "/>
<path style=" stroke:none;fill-rule:evenodd;fill:rgb(27.45098%,39.215686%,43.529412%);fill-opacity:1;" d="M 322.554688 442.738281 C 325.589844 442.792969 326.089844 443.792969 324.054688 445.742188 C 323.152344 444.933594 322.652344 443.929688 322.554688 442.738281 Z M 322.554688 442.738281 "/>
<path style=" stroke:none;fill-rule:evenodd;fill:rgb(96.470588%,96.862745%,93.72549%);fill-opacity:1;" d="M 610.9375 261.738281 C 611.195312 261.105469 611.695312 260.855469 612.441406 260.984375 C 612.441406 347.355469 612.441406 433.722656 612.441406 520.09375 C 457.984375 520.09375 303.53125 520.09375 149.074219 520.09375 C 149.074219 519.84375 149.074219 519.59375 149.074219 519.34375 C 303.277344 519.34375 457.484375 519.34375 611.691406 519.34375 C 611.941406 433.347656 611.691406 347.480469 610.9375 261.738281 Z M 610.9375 261.738281 "/>
<use xlink:href="#surface11" mask="url(#mask2)"/>
<path style=" stroke:none;fill-rule:evenodd;fill:rgb(19.607843%,45.882353%,58.039216%);fill-opacity:1;" d="M 702.558594 675.558594 C 488.078125 676.433594 273.542969 676.558594 58.953125 675.933594 C 59.898438 674.625 60.648438 673.25 61.207031 671.804688 C 87.308594 634.300781 113.59375 596.871094 140.0625 559.523438 C 301.027344 559.023438 461.992188 559.023438 622.953125 559.523438 C 649.65625 598.113281 676.191406 636.789062 702.558594 675.558594 Z M 702.558594 675.558594 "/>
<path style=" stroke:none;fill-rule:evenodd;fill:rgb(12.941176%,35.294118%,47.45098%);fill-opacity:1;" d="M 152.828125 578.675781 C 166.355469 578.425781 179.875 578.675781 193.382812 579.425781 C 190.222656 585.367188 186.96875 591.25 183.621094 597.074219 C 169.34375 597.699219 155.074219 597.574219 140.8125 596.699219 C 144.824219 590.667969 148.832031 584.660156 152.828125 578.675781 Z M 152.828125 578.675781 "/>
<path style=" stroke:none;fill-rule:evenodd;fill:rgb(12.941176%,35.294118%,47.45098%);fill-opacity:1;" d="M 385.636719 579.425781 C 397.90625 579.425781 410.171875 579.425781 422.4375 579.425781 C 423.691406 585.441406 424.945312 591.449219 426.191406 597.449219 C 412.675781 597.449219 399.15625 597.449219 385.636719 597.449219 C 385.636719 591.441406 385.636719 585.433594 385.636719 579.425781 Z M 385.636719 579.425781 "/>
<path style=" stroke:none;fill-rule:evenodd;fill:rgb(12.941176%,35.294118%,47.45098%);fill-opacity:1;" d="M 212.15625 580.175781 C 225.425781 580.050781 238.695312 580.175781 251.960938 580.550781 C 249.636719 585.890625 247.382812 591.273438 245.203125 596.699219 C 231.433594 597.699219 217.664062 597.699219 203.898438 596.699219 C 206.667969 591.179688 209.421875 585.671875 212.15625 580.175781 Z M 212.15625 580.175781 "/>
<path style=" stroke:none;fill-rule:evenodd;fill:rgb(12.941176%,35.294118%,47.45098%);fill-opacity:1;" d="M 269.984375 580.175781 C 283 580.175781 296.019531 580.175781 309.035156 580.175781 C 307.695312 585.707031 306.191406 591.214844 304.53125 596.699219 C 290.761719 597.699219 276.992188 597.699219 263.226562 596.699219 C 265.488281 591.175781 267.742188 585.667969 269.984375 580.175781 Z M 269.984375 580.175781 "/>
<path style=" stroke:none;fill-rule:evenodd;fill:rgb(12.941176%,35.294118%,47.45098%);fill-opacity:1;" d="M 324.808594 579.425781 C 338.324219 579.425781 351.84375 579.425781 365.363281 579.425781 C 365.363281 585.433594 365.363281 591.441406 365.363281 597.449219 C 351.84375 597.449219 338.324219 597.449219 324.808594 597.449219 C 324.808594 591.441406 324.808594 585.433594 324.808594 579.425781 Z M 324.808594 579.425781 "/>
<path style=" stroke:none;fill-rule:evenodd;fill:rgb(12.941176%,35.294118%,47.45098%);fill-opacity:1;" d="M 440.460938 580.925781 C 453.609375 579.929688 466.875 579.929688 480.265625 580.925781 C 482.324219 586.292969 484.578125 591.550781 487.023438 596.699219 C 473.261719 597.574219 459.492188 597.699219 445.71875 597.074219 C 443.664062 591.71875 441.914062 586.335938 440.460938 580.925781 Z M 440.460938 580.925781 "/>
<path style=" stroke:none;fill-rule:evenodd;fill:rgb(12.941176%,35.294118%,47.45098%);fill-opacity:1;" d="M 500.542969 580.175781 C 513.566406 579.925781 526.585938 580.175781 539.59375 580.925781 C 542.15625 586.304688 544.910156 591.5625 547.855469 596.699219 C 534.085938 597.699219 520.316406 597.699219 506.550781 596.699219 C 504.089844 591.324219 502.089844 585.816406 500.542969 580.175781 Z M 500.542969 580.175781 "/>
<path style=" stroke:none;fill-rule:evenodd;fill:rgb(12.941176%,34.901961%,47.058824%);fill-opacity:1;" d="M 558.367188 580.925781 C 571.757812 580.054688 585.277344 579.929688 598.921875 580.550781 C 602.824219 585.832031 606.578125 591.210938 610.1875 596.699219 C 595.917969 597.699219 581.648438 597.699219 567.378906 596.699219 C 564.546875 591.273438 561.542969 586.015625 558.367188 580.925781 Z M 558.367188 580.925781 "/>
<path style=" stroke:none;fill-rule:evenodd;fill:rgb(12.54902%,34.901961%,47.058824%);fill-opacity:1;" d="M 133.300781 607.214844 C 148.082031 606.964844 162.851562 607.214844 177.613281 607.964844 C 174.453125 613.910156 171.199219 619.792969 167.847656 625.613281 C 152.320312 626.238281 136.800781 626.113281 121.285156 625.238281 C 125.605469 619.421875 129.613281 613.414062 133.300781 607.214844 Z M 133.300781 607.214844 "/>
<path style=" stroke:none;fill-rule:evenodd;fill:rgb(12.54902%,34.901961%,47.058824%);fill-opacity:1;" d="M 198.640625 607.214844 C 212.667969 606.964844 226.6875 607.214844 240.695312 607.964844 C 238.78125 613.546875 236.652344 619.054688 234.3125 624.488281 C 219.59375 625.976562 204.699219 626.476562 189.628906 625.988281 C 192.027344 619.4375 195.03125 613.179688 198.640625 607.214844 Z M 198.640625 607.214844 "/>
<path style=" stroke:none;fill-rule:evenodd;fill:rgb(12.54902%,34.901961%,47.058824%);fill-opacity:1;" d="M 258.71875 607.214844 C 272.996094 606.964844 287.265625 607.214844 301.527344 607.964844 C 299.332031 613.851562 297.578125 619.859375 296.269531 625.988281 C 281.246094 626.113281 266.226562 625.988281 251.210938 625.613281 C 254.027344 619.605469 256.53125 613.46875 258.71875 607.214844 Z M 258.71875 607.214844 "/>
<path style=" stroke:none;fill-rule:evenodd;fill:rgb(12.941176%,35.294118%,47.45098%);fill-opacity:1;" d="M 325.558594 607.214844 C 339.078125 607.214844 352.59375 607.214844 366.113281 607.214844 C 366.113281 612.972656 366.113281 618.730469 366.113281 624.488281 C 352.59375 624.488281 339.078125 624.488281 325.558594 624.488281 C 325.558594 618.730469 325.558594 612.972656 325.558594 607.214844 Z M 325.558594 607.214844 "/>
<path style=" stroke:none;fill-rule:evenodd;fill:rgb(12.941176%,35.294118%,47.45098%);fill-opacity:1;" d="M 385.636719 607.964844 C 397.90625 607.964844 410.171875 607.964844 422.4375 607.964844 C 423.519531 613.660156 424.769531 619.292969 426.191406 624.863281 C 412.675781 625.238281 399.160156 625.363281 385.636719 625.238281 C 385.636719 619.480469 385.636719 613.722656 385.636719 607.964844 Z M 385.636719 607.964844 "/>
<path style=" stroke:none;fill-rule:evenodd;fill:rgb(12.54902%,34.901961%,47.058824%);fill-opacity:1;" d="M 448.722656 607.214844 C 462.742188 607.089844 476.761719 607.214844 490.777344 607.589844 C 493.652344 613.585938 496.15625 619.71875 498.289062 625.988281 C 483.519531 625.988281 468.75 625.988281 453.980469 625.988281 C 451.945312 619.820312 450.191406 613.5625 448.722656 607.214844 Z M 448.722656 607.214844 "/>
<path style=" stroke:none;fill-rule:evenodd;fill:rgb(12.54902%,34.901961%,47.058824%);fill-opacity:1;" d="M 511.054688 607.214844 C 525.078125 607.089844 539.09375 607.214844 553.113281 607.589844 C 556.824219 613.390625 559.828125 619.523438 562.125 625.988281 C 547.34375 626.238281 532.574219 625.988281 517.816406 625.238281 C 515.261719 619.328125 513.007812 613.320312 511.054688 607.214844 Z M 511.054688 607.214844 "/>
<path style=" stroke:none;fill-rule:evenodd;fill:rgb(12.54902%,34.901961%,47.058824%);fill-opacity:1;" d="M 573.386719 607.214844 C 588.160156 607.089844 602.929688 607.214844 617.699219 607.589844 C 621.796875 613.40625 625.800781 619.289062 629.714844 625.238281 C 614.191406 626.238281 598.671875 626.238281 583.152344 625.238281 C 579.855469 619.203125 576.601562 613.195312 573.386719 607.214844 Z M 573.386719 607.214844 "/>
<path style=" stroke:none;fill-rule:evenodd;fill:rgb(12.54902%,34.901961%,47.058824%);fill-opacity:1;" d="M 113.777344 636.503906 C 129.800781 636.378906 145.820312 636.503906 161.839844 636.878906 C 158.992188 641.699219 156.238281 646.582031 153.578125 651.523438 C 136.808594 652.527344 120.035156 652.527344 103.261719 651.523438 C 106.773438 646.496094 110.277344 641.488281 113.777344 636.503906 Z M 113.777344 636.503906 "/>
<path style=" stroke:none;fill-rule:evenodd;fill:rgb(12.54902%,34.901961%,47.058824%);fill-opacity:1;" d="M 183.621094 636.503906 C 198.890625 636.378906 214.160156 636.503906 229.429688 636.878906 C 227.109375 642.21875 224.855469 647.601562 222.671875 653.027344 C 206.910156 653.777344 191.136719 654.027344 175.359375 653.777344 C 177.675781 647.832031 180.429688 642.074219 183.621094 636.503906 Z M 183.621094 636.503906 "/>
<path style=" stroke:none;fill-rule:evenodd;fill:rgb(12.54902%,34.901961%,47.058824%);fill-opacity:1;" d="M 246.703125 636.503906 C 261.980469 636.253906 277.253906 636.503906 292.515625 637.253906 C 290.914062 642.757812 289.414062 648.265625 288.007812 653.777344 C 271.980469 654.027344 255.957031 653.777344 239.945312 653.027344 C 242.207031 647.503906 244.460938 641.996094 246.703125 636.503906 Z M 246.703125 636.503906 "/>
<path style=" stroke:none;fill-rule:evenodd;fill:rgb(12.941176%,34.901961%,47.058824%);fill-opacity:1;" d="M 308.285156 636.503906 C 351.09375 636.503906 393.898438 636.503906 436.707031 636.503906 C 437.601562 641.839844 438.855469 647.097656 440.460938 652.277344 C 395.152344 653.027344 349.84375 653.277344 304.53125 653.027344 C 305.785156 647.503906 307.035156 641.996094 308.285156 636.503906 Z M 308.285156 636.503906 "/>
<path style=" stroke:none;fill-rule:evenodd;fill:rgb(12.941176%,34.901961%,47.058824%);fill-opacity:1;" d="M 457.734375 636.503906 C 472.757812 636.378906 487.777344 636.503906 502.792969 636.878906 C 505.609375 642.308594 507.863281 647.941406 509.554688 653.777344 C 493.773438 654.027344 478.003906 653.777344 462.242188 653.027344 C 460.449219 647.570312 458.949219 642.0625 457.734375 636.503906 Z M 457.734375 636.503906 "/>
<path style=" stroke:none;fill-rule:evenodd;fill:rgb(12.941176%,34.901961%,47.058824%);fill-opacity:1;" d="M 522.320312 636.503906 C 537.59375 636.378906 552.863281 636.503906 568.132812 636.878906 C 571.328125 642.265625 574.332031 647.773438 577.144531 653.402344 C 561.121094 653.902344 545.101562 653.902344 529.078125 653.402344 C 526.898438 647.734375 524.644531 642.101562 522.320312 636.503906 Z M 522.320312 636.503906 "/>
<path style=" stroke:none;fill-rule:evenodd;fill:rgb(12.54902%,34.901961%,47.058824%);fill-opacity:1;" d="M 589.910156 636.503906 C 605.941406 636.253906 621.960938 636.503906 637.972656 637.253906 C 641.636719 642.703125 645.390625 648.085938 649.238281 653.402344 C 632.46875 653.902344 615.695312 653.902344 598.921875 653.402344 C 595.613281 647.90625 592.609375 642.273438 589.910156 636.503906 Z M 589.910156 636.503906 "/>
<path style=" stroke:none;fill-rule:evenodd;fill:rgb(20.392157%,47.843137%,59.215686%);fill-opacity:1;" d="M 61.207031 671.804688 C 60.648438 673.25 59.898438 674.625 58.953125 675.933594 C 273.542969 676.558594 488.078125 676.433594 702.558594 675.558594 C 702.8125 676.058594 703.0625 676.558594 703.3125 677.058594 C 487.898438 677.308594 272.613281 677.058594 57.453125 676.308594 C 58.351562 674.5 59.605469 672.996094 61.207031 671.804688 Z M 61.207031 671.804688 "/>
<path style=" stroke:none;fill-rule:evenodd;fill:rgb(17.254902%,41.960784%,54.117647%);fill-opacity:1;" d="M 57.453125 676.308594 C 272.613281 677.058594 487.898438 677.308594 703.3125 677.058594 C 595.667969 677.5625 487.898438 677.8125 380.007812 677.8125 C 272.238281 677.5625 164.46875 677.308594 56.699219 677.058594 C 56.792969 676.605469 57.042969 676.355469 57.453125 676.308594 Z M 57.453125 676.308594 "/>
<use xlink:href="#surface14" mask="url(#mask3)"/>
<path style=" stroke:none;fill-rule:evenodd;fill:rgb(12.941176%,35.294118%,47.45098%);fill-opacity:1;" d="M 333.070312 702.59375 C 364.609375 702.59375 396.152344 702.59375 427.695312 702.59375 C 427.695312 706.351562 427.695312 710.105469 427.695312 713.859375 C 396.152344 713.859375 364.609375 713.859375 333.070312 713.859375 C 333.070312 710.105469 333.070312 706.351562 333.070312 702.59375 Z M 333.070312 702.59375 "/>
</g>
</svg>
