<?xml version="1.0" encoding="UTF-8"?>
<svg xmlns="http://www.w3.org/2000/svg" xmlns:xlink="http://www.w3.org/1999/xlink" width="724px" height="724px" viewBox="0 0 724 724" version="1.1">
<defs>
<filter id="alpha" filterUnits="objectBoundingBox" x="0%" y="0%" width="100%" height="100%">
  <feColorMatrix type="matrix" in="SourceGraphic" values="0 0 0 0 1 0 0 0 0 1 0 0 0 0 1 0 0 0 1 0"/>
</filter>
<mask id="mask0">
  <g filter="url(#alpha)">
<rect x="0" y="0" width="724" height="724" style="fill:rgb(0%,0%,0%);fill-opacity:0.917647;stroke:none;"/>
  </g>
</mask>
<clipPath id="clip1">
  <rect x="0" y="0" width="724" height="724"/>
</clipPath>
<g id="surface5" clip-path="url(#clip1)">
<path style=" stroke:none;fill-rule:evenodd;fill:rgb(4.705882%,32.941176%,64.705882%);fill-opacity:1;" d="M 330.210938 -0.648438 C 350.972656 -0.648438 371.730469 -0.648438 392.492188 -0.648438 C 531.535156 16.40625 631.65625 87.769531 692.859375 213.4375 C 709.148438 250.921875 719.3125 289.84375 723.351562 330.210938 C 723.351562 350.972656 723.351562 371.730469 723.351562 392.492188 C 706.296875 531.535156 634.933594 631.660156 509.265625 692.859375 C 471.78125 709.148438 432.855469 719.3125 392.492188 723.351562 C 371.730469 723.351562 350.972656 723.351562 330.210938 723.351562 C 191.164062 706.296875 91.042969 634.933594 29.84375 509.265625 C 13.550781 471.78125 3.390625 432.855469 -0.648438 392.492188 C -0.648438 371.730469 -0.648438 350.972656 -0.648438 330.210938 C 16.40625 191.167969 87.769531 91.042969 213.4375 29.84375 C 250.921875 13.550781 289.847656 3.390625 330.210938 -0.648438 Z M 331.507812 24.003906 C 474.152344 18.433594 582.492188 75.953125 656.53125 196.570312 C 668.570312 218.027344 677.652344 240.519531 683.777344 264.039062 C 674.546875 267.597656 665.246094 269.757812 655.882812 270.527344 C 630.089844 193.277344 581.652344 134.890625 510.5625 95.367188 C 510.921875 73.011719 500.109375 63.28125 478.125 66.171875 C 472.664062 67.710938 468.554688 70.957031 465.800781 75.902344 C 367.554688 43.949219 275.648438 56.707031 190.082031 114.179688 C 107.835938 175.683594 66.53125 258.074219 66.171875 361.351562 C 72.078125 246.753906 124.625 161.335938 223.816406 105.097656 C 301.203125 67.234375 380.351562 62.910156 461.257812 92.121094 C 467.304688 110.875 479.632812 116.710938 498.238281 109.636719 C 564.144531 148.648438 608.90625 204.65625 632.527344 277.664062 C 623.136719 280.875 613.621094 283.6875 603.980469 286.097656 C 572.621094 198.726562 512.070312 143.152344 422.332031 119.371094 C 329.105469 100.980469 249.308594 125.414062 182.945312 192.675781 C 165.101562 212.347656 150.828125 234.40625 140.128906 258.847656 C 124.652344 259.183594 118.164062 266.96875 120.667969 282.203125 C 122.613281 285.878906 125.425781 288.691406 129.101562 290.636719 C 121.871094 313.640625 119.0625 337.214844 120.667969 361.351562 C 121.679688 337.550781 125.355469 314.195312 131.695312 291.285156 C 147.011719 291.75 153.285156 284.398438 150.507812 269.230469 C 148.8125 266.453125 146.867188 263.855469 144.671875 261.445312 C 190.300781 174.914062 262.3125 129.933594 360.703125 126.503906 C 450.804688 131.941406 518.273438 173.460938 563.109375 251.066406 C 569.410156 264.125 574.816406 277.53125 579.328125 291.285156 C 570.195312 294.691406 560.894531 297.71875 551.433594 300.371094 C 518.003906 216.136719 455.941406 172.023438 365.242188 168.023438 C 280.820312 170.980469 221.351562 210.769531 186.839844 287.394531 C 177.464844 311.203125 173.570312 335.855469 175.160156 361.351562 C 180.558594 282.796875 218.835938 227.222656 289.988281 194.625 C 364.976562 168.53125 430.929688 183.019531 487.855469 238.089844 C 505.539062 258.09375 518.730469 280.800781 527.429688 306.207031 C 517.585938 308.769531 507.855469 311.582031 498.238281 314.640625 C 477.167969 263.34375 439.328125 232.851562 384.707031 223.167969 C 363.289062 220.902344 342.316406 222.847656 321.777344 229.007812 C 314.628906 225.328125 307.058594 224.246094 299.070312 225.761719 C 290.527344 229.644531 286.417969 236.347656 286.746094 245.875 C 247.289062 274.1875 228.261719 312.675781 229.65625 361.351562 C 232.378906 316.085938 252.492188 281.054688 289.988281 256.253906 C 297.597656 264.222656 306.679688 266.167969 317.238281 262.09375 C 325.414062 256.746094 328.441406 249.175781 326.320312 239.386719 C 386.722656 228.402344 433.214844 248.730469 465.800781 300.371094 C 468.988281 306.695312 471.800781 313.183594 474.234375 319.832031 C 464.539062 322.992188 454.808594 326.019531 445.039062 328.914062 C 425.523438 289.632812 393.738281 272.546875 349.675781 277.664062 C 305.894531 288.476562 284.054688 316.375 284.152344 361.351562 C 289.917969 318.824219 314.136719 295.035156 356.808594 289.988281 C 382.386719 291.523438 402.28125 302.769531 416.496094 323.722656 C 418.753906 327.367188 420.269531 331.261719 421.035156 335.402344 C 407.785156 338.550781 394.59375 342.011719 381.460938 345.78125 C 370.316406 336.796875 358.425781 335.714844 345.78125 342.539062 C 337.839844 351.394531 335.890625 361.558594 339.941406 373.027344 C 346.898438 383.570312 356.628906 387.246094 369.136719 384.058594 C 379.121094 380.105469 384.746094 372.753906 386.003906 362 C 486.839844 335.167969 587.613281 308.136719 688.320312 280.90625 C 715.5 403.269531 686.089844 509.878906 600.089844 600.738281 C 503.902344 690.417969 391.886719 718.53125 264.039062 685.074219 C 150.507812 647.664062 75.039062 572.195312 37.628906 458.664062 C 6.042969 340.195312 28.964844 233.800781 106.394531 139.480469 C 166.699219 72.671875 241.738281 34.179688 331.507812 24.003906 Z M 331.507812 24.003906 "/>
</g>
</defs>
<g id="surface1">
<use xlink:href="#surface5" mask="url(#mask0)"/>
</g>
</svg>
